<svg width="48" height="48" viewBox="0 0 48 48" fill="none" xmlns="http://www.w3.org/2000/svg">
<rect width="48" height="48" rx="12" fill="#6729FF"/>
<path d="M15.9993 24H16.0127M31.9993 24H32.0127M13.3327 16H34.666C36.1388 16 37.3327 17.1939 37.3327 18.6667V29.3333C37.3327 30.8061 36.1388 32 34.666 32H13.3327C11.8599 32 10.666 30.8061 10.666 29.3333V18.6667C10.666 17.1939 11.8599 16 13.3327 16ZM26.666 24C26.666 25.4728 25.4721 26.6667 23.9993 26.6667C22.5266 26.6667 21.3327 25.4728 21.3327 24C21.3327 22.5272 22.5266 21.3333 23.9993 21.3333C25.4721 21.3333 26.666 22.5272 26.666 24Z" stroke="white" stroke-width="2.66667" stroke-linecap="round" stroke-linejoin="round"/>
</svg>
