<svg width="100" height="24" viewBox="0 0 100 24" fill="none" xmlns="http://www.w3.org/2000/svg">
<path d="M1.632 21V4.056H4.272L5.4 7.44V21H1.632ZM13.32 21L3.336 8.208L4.272 4.056L14.256 16.848L13.32 21ZM13.32 21L12.312 17.616V4.056H16.08V21H13.32ZM24.1988 21.264C23.1268 21.264 22.1748 21.048 21.3428 20.616C20.5268 20.168 19.8868 19.56 19.4228 18.792C18.9588 18.008 18.7268 17.112 18.7268 16.104V9.336H22.3988V16.056C22.3988 16.456 22.4628 16.8 22.5908 17.088C22.7348 17.376 22.9428 17.6 23.2148 17.76C23.4868 17.92 23.8148 18 24.1988 18C24.7428 18 25.1748 17.832 25.4948 17.496C25.8148 17.144 25.9748 16.664 25.9748 16.056V9.336H29.6468V16.08C29.6468 17.104 29.4148 18.008 28.9508 18.792C28.4868 19.56 27.8468 20.168 27.0308 20.616C26.2148 21.048 25.2708 21.264 24.1988 21.264ZM31.9523 21V3.576H35.6243V21H31.9523ZM38.2101 21V3.576H41.8821V21H38.2101ZM47.6839 21V18.072H51.6679C52.4039 18.072 52.9799 17.856 53.3959 17.424C53.8119 16.992 54.0199 16.464 54.0199 15.84C54.0199 15.408 53.9239 15.024 53.7319 14.688C53.5399 14.352 53.2679 14.088 52.9159 13.896C52.5799 13.704 52.1639 13.608 51.6679 13.608H47.6839V10.752H51.3559C51.9799 10.752 52.4839 10.6 52.8679 10.296C53.2519 9.976 53.4439 9.496 53.4439 8.856C53.4439 8.232 53.2519 7.768 52.8679 7.464C52.4839 7.144 51.9799 6.984 51.3559 6.984H47.6839V4.056H52.0759C53.1639 4.056 54.0839 4.256 54.8359 4.656C55.6039 5.056 56.1879 5.592 56.5879 6.264C56.9879 6.936 57.1879 7.68 57.1879 8.496C57.1879 9.536 56.8519 10.416 56.1799 11.136C55.5079 11.856 54.5159 12.352 53.2039 12.624L53.2999 11.352C54.7239 11.624 55.8199 12.176 56.5879 13.008C57.3719 13.84 57.7639 14.864 57.7639 16.08C57.7639 17.008 57.5319 17.848 57.0679 18.6C56.6199 19.336 55.9639 19.92 55.0999 20.352C54.2519 20.784 53.2279 21 52.0279 21H47.6839ZM44.8039 21V4.056H48.5239V21H44.8039ZM64.7149 21.24C63.6429 21.24 62.6829 20.976 61.8349 20.448C61.0029 19.92 60.3389 19.2 59.8429 18.288C59.3629 17.376 59.1229 16.336 59.1229 15.168C59.1229 14 59.3629 12.96 59.8429 12.048C60.3389 11.136 61.0029 10.416 61.8349 9.888C62.6829 9.36 63.6429 9.096 64.7149 9.096C65.4989 9.096 66.2029 9.248 66.8269 9.552C67.4669 9.856 67.9869 10.28 68.3869 10.824C68.7869 11.352 69.0109 11.96 69.0589 12.648V17.688C69.0109 18.376 68.7869 18.992 68.3869 19.536C68.0029 20.064 67.4909 20.48 66.8509 20.784C66.2109 21.088 65.4989 21.24 64.7149 21.24ZM65.4589 17.928C66.2429 17.928 66.8749 17.672 67.3549 17.16C67.8349 16.632 68.0749 15.968 68.0749 15.168C68.0749 14.624 67.9629 14.144 67.7389 13.728C67.5309 13.312 67.2269 12.992 66.8269 12.768C66.4429 12.528 65.9949 12.408 65.4829 12.408C64.9709 12.408 64.5149 12.528 64.1149 12.768C63.7309 12.992 63.4189 13.312 63.1789 13.728C62.9549 14.144 62.8429 14.624 62.8429 15.168C62.8429 15.696 62.9549 16.168 63.1789 16.584C63.4029 17 63.7149 17.328 64.1149 17.568C64.5149 17.808 64.9629 17.928 65.4589 17.928ZM67.9309 21V17.856L68.4829 15.024L67.9309 12.192V9.336H71.5309V21H67.9309ZM81.8203 21V14.352C81.8203 13.744 81.6283 13.256 81.2443 12.888C80.8763 12.504 80.4043 12.312 79.8283 12.312C79.4283 12.312 79.0763 12.4 78.7723 12.576C78.4683 12.736 78.2283 12.976 78.0523 13.296C77.8763 13.6 77.7883 13.952 77.7883 14.352L76.3723 13.656C76.3723 12.744 76.5723 11.944 76.9723 11.256C77.3723 10.568 77.9243 10.04 78.6283 9.672C79.3483 9.288 80.1563 9.096 81.0523 9.096C81.9163 9.096 82.6763 9.304 83.3323 9.72C84.0043 10.12 84.5323 10.656 84.9163 11.328C85.3003 12 85.4923 12.736 85.4923 13.536V21H81.8203ZM74.1163 21V9.336H77.7883V21H74.1163ZM95.3147 21L91.2347 14.952L95.2907 9.336H99.3947L94.4987 15.648L94.6187 14.136L99.6347 21H95.3147ZM87.8507 21V3.576H91.5227V21H87.8507Z" fill="#6729FF"/>
</svg>
